<svg width="186" height="198" viewBox="0 0 186 198" fill="none" xmlns="http://www.w3.org/2000/svg">
<g filter="url(#filter0_d_442_2035)">
<circle cx="87" cy="87" r="87" fill="#DEB887"/>
<path d="M48 84C48.1667 82.6667 61.5 75.5 113.5 57.5H128L126.5 100.5L93 111.5L57 103.5L48 84Z" fill="#483E41"/>
<mask id="path-3-outside-1_442_2035" maskUnits="userSpaceOnUse" x="38" y="46" width="99" height="83" fill="black">
<rect fill="white" x="38" y="46" width="99" height="83"/>
<path d="M124.85 54H66.75C65.6494 54 64.5938 54.4412 63.8155 55.2265C63.0372 56.0118 62.6 57.0769 62.6 58.1875V70.75H83.35V62.375H108.25V104.25H124.85C125.951 104.25 127.006 103.809 127.785 103.024C128.563 102.238 129 101.173 129 100.062V58.1875C129 57.0769 128.563 56.0118 127.785 55.2265C127.006 54.4412 125.951 54 124.85 54ZM76.0875 67.4785C76.0875 67.7909 75.9645 68.0904 75.7456 68.3113C75.5268 68.5322 75.2299 68.6562 74.9203 68.6562H71.0297C70.7201 68.6562 70.4233 68.5322 70.2044 68.3113C69.9855 68.0904 69.8625 67.7909 69.8625 67.4785V63.5527C69.8625 63.2404 69.9855 62.9408 70.2044 62.72C70.4233 62.4991 70.7201 62.375 71.0297 62.375H74.9203C75.2299 62.375 75.5268 62.4991 75.7456 62.72C75.9645 62.9408 76.0875 63.2404 76.0875 63.5527V67.4785ZM121.738 94.6973C121.738 95.0096 121.615 95.3092 121.396 95.53C121.177 95.7509 120.88 95.875 120.57 95.875H116.68C116.37 95.875 116.073 95.7509 115.854 95.53C115.635 95.3092 115.513 95.0096 115.513 94.6973V90.7715C115.513 90.4591 115.635 90.1596 115.854 89.9387C116.073 89.7178 116.37 89.5938 116.68 89.5938H120.57C120.88 89.5938 121.177 89.7178 121.396 89.9387C121.615 90.1596 121.738 90.4591 121.738 90.7715V94.6973ZM121.738 81.0879C121.738 81.4002 121.615 81.6998 121.396 81.9207C121.177 82.1415 120.88 82.2656 120.57 82.2656H116.68C116.37 82.2656 116.073 82.1415 115.854 81.9207C115.635 81.6998 115.513 81.4002 115.513 81.0879V77.1621C115.513 76.8498 115.635 76.5502 115.854 76.3293C116.073 76.1085 116.37 75.9844 116.68 75.9844H120.57C120.88 75.9844 121.177 76.1085 121.396 76.3293C121.615 76.5502 121.738 76.8498 121.738 77.1621V81.0879ZM121.738 67.4785C121.738 67.7909 121.615 68.0904 121.396 68.3113C121.177 68.5322 120.88 68.6562 120.57 68.6562H116.68C116.37 68.6562 116.073 68.5322 115.854 68.3113C115.635 68.0904 115.513 67.7909 115.513 67.4785V63.5527C115.513 63.2404 115.635 62.9408 115.854 62.72C116.073 62.4991 116.37 62.375 116.68 62.375H120.57C120.88 62.375 121.177 62.4991 121.396 62.72C121.615 62.9408 121.738 63.2404 121.738 63.5527V67.4785ZM99.95 74.9375H50.15C49.0494 74.9375 47.9938 75.3787 47.2155 76.164C46.4372 76.9493 46 78.0144 46 79.125V116.812C46 117.923 46.4372 118.988 47.2155 119.774C47.9938 120.559 49.0494 121 50.15 121H99.95C101.051 121 102.106 120.559 102.884 119.774C103.663 118.988 104.1 117.923 104.1 116.812V79.125C104.1 78.0144 103.663 76.9493 102.884 76.164C102.106 75.3787 101.051 74.9375 99.95 74.9375ZM58.45 83.3125C59.2708 83.3125 60.0732 83.5581 60.7556 84.0182C61.4381 84.4783 61.97 85.1323 62.2841 85.8975C62.5982 86.6627 62.6804 87.5046 62.5203 88.3169C62.3601 89.1292 61.9649 89.8754 61.3845 90.461C60.8041 91.0466 60.0646 91.4455 59.2596 91.607C58.4546 91.7686 57.6202 91.6857 56.8619 91.3687C56.1035 91.0518 55.4554 90.5151 54.9994 89.8265C54.5434 89.1378 54.3 88.3282 54.3 87.5C54.3 86.3894 54.7372 85.3243 55.5155 84.539C56.2938 83.7537 57.3494 83.3125 58.45 83.3125ZM95.8 112.625H54.3V108.438L62.6 100.062L66.75 104.25L83.35 87.5L95.8 100.062V112.625Z"/>
</mask>
<path d="M124.85 54H66.75C65.6494 54 64.5938 54.4412 63.8155 55.2265C63.0372 56.0118 62.6 57.0769 62.6 58.1875V70.75H83.35V62.375H108.25V104.25H124.85C125.951 104.25 127.006 103.809 127.785 103.024C128.563 102.238 129 101.173 129 100.062V58.1875C129 57.0769 128.563 56.0118 127.785 55.2265C127.006 54.4412 125.951 54 124.85 54ZM76.0875 67.4785C76.0875 67.7909 75.9645 68.0904 75.7456 68.3113C75.5268 68.5322 75.2299 68.6562 74.9203 68.6562H71.0297C70.7201 68.6562 70.4233 68.5322 70.2044 68.3113C69.9855 68.0904 69.8625 67.7909 69.8625 67.4785V63.5527C69.8625 63.2404 69.9855 62.9408 70.2044 62.72C70.4233 62.4991 70.7201 62.375 71.0297 62.375H74.9203C75.2299 62.375 75.5268 62.4991 75.7456 62.72C75.9645 62.9408 76.0875 63.2404 76.0875 63.5527V67.4785ZM121.738 94.6973C121.738 95.0096 121.615 95.3092 121.396 95.53C121.177 95.7509 120.88 95.875 120.57 95.875H116.68C116.37 95.875 116.073 95.7509 115.854 95.53C115.635 95.3092 115.513 95.0096 115.513 94.6973V90.7715C115.513 90.4591 115.635 90.1596 115.854 89.9387C116.073 89.7178 116.37 89.5938 116.68 89.5938H120.57C120.88 89.5938 121.177 89.7178 121.396 89.9387C121.615 90.1596 121.738 90.4591 121.738 90.7715V94.6973ZM121.738 81.0879C121.738 81.4002 121.615 81.6998 121.396 81.9207C121.177 82.1415 120.88 82.2656 120.57 82.2656H116.68C116.37 82.2656 116.073 82.1415 115.854 81.9207C115.635 81.6998 115.513 81.4002 115.513 81.0879V77.1621C115.513 76.8498 115.635 76.5502 115.854 76.3293C116.073 76.1085 116.37 75.9844 116.68 75.9844H120.57C120.88 75.9844 121.177 76.1085 121.396 76.3293C121.615 76.5502 121.738 76.8498 121.738 77.1621V81.0879ZM121.738 67.4785C121.738 67.7909 121.615 68.0904 121.396 68.3113C121.177 68.5322 120.88 68.6562 120.57 68.6562H116.68C116.37 68.6562 116.073 68.5322 115.854 68.3113C115.635 68.0904 115.513 67.7909 115.513 67.4785V63.5527C115.513 63.2404 115.635 62.9408 115.854 62.72C116.073 62.4991 116.37 62.375 116.68 62.375H120.57C120.88 62.375 121.177 62.4991 121.396 62.72C121.615 62.9408 121.738 63.2404 121.738 63.5527V67.4785ZM99.95 74.9375H50.15C49.0494 74.9375 47.9938 75.3787 47.2155 76.164C46.4372 76.9493 46 78.0144 46 79.125V116.812C46 117.923 46.4372 118.988 47.2155 119.774C47.9938 120.559 49.0494 121 50.15 121H99.95C101.051 121 102.106 120.559 102.884 119.774C103.663 118.988 104.1 117.923 104.1 116.812V79.125C104.1 78.0144 103.663 76.9493 102.884 76.164C102.106 75.3787 101.051 74.9375 99.95 74.9375ZM58.45 83.3125C59.2708 83.3125 60.0732 83.5581 60.7556 84.0182C61.4381 84.4783 61.97 85.1323 62.2841 85.8975C62.5982 86.6627 62.6804 87.5046 62.5203 88.3169C62.3601 89.1292 61.9649 89.8754 61.3845 90.461C60.8041 91.0466 60.0646 91.4455 59.2596 91.607C58.4546 91.7686 57.6202 91.6857 56.8619 91.3687C56.1035 91.0518 55.4554 90.5151 54.9994 89.8265C54.5434 89.1378 54.3 88.3282 54.3 87.5C54.3 86.3894 54.7372 85.3243 55.5155 84.539C56.2938 83.7537 57.3494 83.3125 58.45 83.3125ZM95.8 112.625H54.3V108.438L62.6 100.062L66.75 104.25L83.35 87.5L95.8 100.062V112.625Z" fill="#B35443"/>
<path d="M62.6 58.1875H54.6H62.6ZM62.6 70.75H54.6V78.75H62.6V70.75ZM83.35 70.75V78.75H91.35V70.75H83.35ZM83.35 62.375V54.375H75.35V62.375H83.35ZM108.25 62.375H116.25V54.375H108.25V62.375ZM108.25 104.25H100.25V112.25H108.25V104.25ZM76.0875 67.4785H84.0875H76.0875ZM71.0297 68.6562V76.6562V68.6562ZM69.8625 67.4785H61.8625H69.8625ZM76.0875 63.5527H84.0875H76.0875ZM116.68 89.5938V97.5938V89.5938ZM116.68 75.9844V67.9844V75.9844ZM116.68 68.6562V76.6562V68.6562ZM46 79.125H38H46ZM46 116.812H38H46ZM58.45 83.3125V91.3125V83.3125ZM95.8 112.625V120.625H103.8V112.625H95.8ZM54.3 112.625H46.3V120.625H54.3V112.625ZM54.3 108.438L48.6178 102.806L46.3 105.145V108.438H54.3ZM62.6 100.062L68.2822 94.4311L62.6 88.6976L56.9178 94.4311L62.6 100.062ZM66.75 104.25L61.0678 109.881L66.75 115.615L72.4322 109.881L66.75 104.25ZM83.35 87.5L89.0322 81.8686L83.35 76.1351L77.6678 81.8686L83.35 87.5ZM95.8 100.062H103.8V96.7698L101.482 94.4311L95.8 100.062ZM124.85 46H66.75V62H124.85V46ZM66.75 46C63.5043 46 60.4062 47.3017 58.1333 49.5951L69.4977 60.8578C68.7814 61.5807 67.7944 62 66.75 62V46ZM58.1333 49.5951C55.8628 51.8862 54.6 54.9783 54.6 58.1875H70.6C70.6 59.1755 70.2117 60.1374 69.4977 60.8578L58.1333 49.5951ZM54.6 58.1875V70.75H70.6V58.1875H54.6ZM62.6 78.75H83.35V62.75H62.6V78.75ZM91.35 70.75V62.375H75.35V70.75H91.35ZM83.35 70.375H108.25V54.375H83.35V70.375ZM100.25 62.375V104.25H116.25V62.375H100.25ZM108.25 112.25H124.85V96.25H108.25V112.25ZM124.85 112.25C128.096 112.25 131.194 110.948 133.467 108.655L122.102 97.3922C122.819 96.6693 123.806 96.25 124.85 96.25V112.25ZM133.467 108.655C135.737 106.364 137 103.272 137 100.062H121C121 99.0745 121.388 98.1126 122.102 97.3922L133.467 108.655ZM137 100.062V58.1875H121V100.062H137ZM137 58.1875C137 54.9783 135.737 51.8862 133.467 49.5951L122.102 60.8578C121.388 60.1374 121 59.1755 121 58.1875H137ZM133.467 49.5951C131.194 47.3017 128.096 46 124.85 46V62C123.806 62 122.819 61.5807 122.102 60.8578L133.467 49.5951ZM68.0875 67.4785C68.0875 65.6923 68.7901 63.9648 70.0634 62.6799L81.4279 73.9427C83.139 72.2161 84.0875 69.8895 84.0875 67.4785H68.0875ZM70.0634 62.6799C71.3392 61.3927 73.0848 60.6562 74.9203 60.6562V76.6562C77.3749 76.6562 79.7143 75.6717 81.4279 73.9427L70.0634 62.6799ZM74.9203 60.6562H71.0297V76.6562H74.9203V60.6562ZM71.0297 60.6562C72.8652 60.6562 74.6108 61.3927 75.8866 62.6799L64.5221 73.9427C66.2357 75.6717 68.5751 76.6562 71.0297 76.6562V60.6562ZM75.8866 62.6799C77.1599 63.9648 77.8625 65.6923 77.8625 67.4785H61.8625C61.8625 69.8895 62.811 72.2161 64.5221 73.9427L75.8866 62.6799ZM77.8625 67.4785V63.5527H61.8625V67.4785H77.8625ZM77.8625 63.5527C77.8625 65.339 77.1599 67.0665 75.8866 68.3513L64.5221 57.0886C62.811 58.8152 61.8625 61.1418 61.8625 63.5527H77.8625ZM75.8866 68.3513C74.6108 69.6386 72.8652 70.375 71.0297 70.375V54.375C68.5751 54.375 66.2357 55.3596 64.5221 57.0886L75.8866 68.3513ZM71.0297 70.375H74.9203V54.375H71.0297V70.375ZM74.9203 70.375C73.0848 70.375 71.3392 69.6386 70.0634 68.3513L81.4279 57.0886C79.7143 55.3596 77.3749 54.375 74.9203 54.375V70.375ZM70.0634 68.3513C68.7901 67.0665 68.0875 65.339 68.0875 63.5527H84.0875C84.0875 61.1418 83.139 58.8152 81.4279 57.0886L70.0634 68.3513ZM68.0875 63.5527V67.4785H84.0875V63.5527H68.0875ZM113.738 94.6973C113.738 92.911 114.44 91.1835 115.713 89.8987L127.078 101.161C128.789 99.4348 129.738 97.1083 129.738 94.6973H113.738ZM115.713 89.8987C116.989 88.6114 118.735 87.875 120.57 87.875V103.875C123.025 103.875 125.364 102.89 127.078 101.161L115.713 89.8987ZM120.57 87.875H116.68V103.875H120.57V87.875ZM116.68 87.875C118.515 87.875 120.261 88.6114 121.537 89.8987L110.172 101.161C111.886 102.89 114.225 103.875 116.68 103.875V87.875ZM121.537 89.8987C122.81 91.1835 123.513 92.911 123.513 94.6973H107.513C107.513 97.1083 108.461 99.4348 110.172 101.161L121.537 89.8987ZM123.513 94.6973V90.7715H107.513V94.6973H123.513ZM123.513 90.7715C123.513 92.5578 122.81 94.2852 121.537 95.5701L110.172 84.3073C108.461 86.0339 107.513 88.3605 107.513 90.7715H123.513ZM121.537 95.5701C120.261 96.8573 118.515 97.5938 116.68 97.5938V81.5938C114.225 81.5938 111.886 82.5784 110.172 84.3073L121.537 95.5701ZM116.68 97.5938H120.57V81.5938H116.68V97.5938ZM120.57 97.5938C118.735 97.5938 116.989 96.8573 115.713 95.5701L127.078 84.3073C125.364 82.5784 123.025 81.5938 120.57 81.5938V97.5938ZM115.713 95.5701C114.44 94.2852 113.738 92.5578 113.738 90.7715H129.738C129.738 88.3605 128.789 86.0339 127.078 84.3073L115.713 95.5701ZM113.738 90.7715V94.6973H129.738V90.7715H113.738ZM113.738 81.0879C113.738 79.3016 114.44 77.5742 115.713 76.2893L127.078 87.552C128.789 85.8255 129.738 83.4989 129.738 81.0879H113.738ZM115.713 76.2893C116.989 75.002 118.735 74.2656 120.57 74.2656V90.2656C123.025 90.2656 125.364 89.281 127.078 87.552L115.713 76.2893ZM120.57 74.2656H116.68V90.2656H120.57V74.2656ZM116.68 74.2656C118.515 74.2656 120.261 75.002 121.537 76.2893L110.172 87.552C111.886 89.281 114.225 90.2656 116.68 90.2656V74.2656ZM121.537 76.2893C122.81 77.5742 123.513 79.3016 123.513 81.0879H107.513C107.513 83.4989 108.461 85.8255 110.172 87.552L121.537 76.2893ZM123.513 81.0879V77.1621H107.513V81.0879H123.513ZM123.513 77.1621C123.513 78.9484 122.81 80.6758 121.537 81.9607L110.172 70.698C108.461 72.4245 107.513 74.7511 107.513 77.1621H123.513ZM121.537 81.9607C120.261 83.248 118.515 83.9844 116.68 83.9844V67.9844C114.225 67.9844 111.886 68.969 110.172 70.698L121.537 81.9607ZM116.68 83.9844H120.57V67.9844H116.68V83.9844ZM120.57 83.9844C118.735 83.9844 116.989 83.248 115.713 81.9607L127.078 70.698C125.364 68.969 123.025 67.9844 120.57 67.9844V83.9844ZM115.713 81.9607C114.44 80.6758 113.738 78.9484 113.738 77.1621H129.738C129.738 74.7511 128.789 72.4245 127.078 70.698L115.713 81.9607ZM113.738 77.1621V81.0879H129.738V77.1621H113.738ZM113.738 67.4785C113.738 65.6922 114.44 63.9648 115.713 62.6799L127.078 73.9427C128.789 72.2161 129.738 69.8895 129.738 67.4785H113.738ZM115.713 62.6799C116.989 61.3927 118.735 60.6562 120.57 60.6562V76.6562C123.025 76.6562 125.364 75.6717 127.078 73.9427L115.713 62.6799ZM120.57 60.6562H116.68V76.6562H120.57V60.6562ZM116.68 60.6562C118.515 60.6562 120.261 61.3927 121.537 62.6799L110.172 73.9427C111.886 75.6717 114.225 76.6562 116.68 76.6562V60.6562ZM121.537 62.6799C122.81 63.9648 123.513 65.6922 123.513 67.4785H107.513C107.513 69.8895 108.461 72.2161 110.172 73.9427L121.537 62.6799ZM123.513 67.4785V63.5527H107.513V67.4785H123.513ZM123.513 63.5527C123.513 65.339 122.81 67.0665 121.537 68.3513L110.172 57.0886C108.461 58.8152 107.513 61.1417 107.513 63.5527H123.513ZM121.537 68.3513C120.261 69.6386 118.515 70.375 116.68 70.375V54.375C114.225 54.375 111.886 55.3596 110.172 57.0886L121.537 68.3513ZM116.68 70.375H120.57V54.375H116.68V70.375ZM120.57 70.375C118.735 70.375 116.989 69.6386 115.713 68.3513L127.078 57.0886C125.364 55.3596 123.025 54.375 120.57 54.375V70.375ZM115.713 68.3513C114.44 67.0665 113.738 65.339 113.738 63.5527H129.738C129.738 61.1417 128.789 58.8152 127.078 57.0886L115.713 68.3513ZM113.738 63.5527V67.4785H129.738V63.5527H113.738ZM99.95 66.9375H50.15V82.9375H99.95V66.9375ZM50.15 66.9375C46.9043 66.9375 43.8062 68.2392 41.5333 70.5326L52.8977 81.7953C52.1814 82.5182 51.1944 82.9375 50.15 82.9375V66.9375ZM41.5333 70.5326C39.2628 72.8237 38 75.9158 38 79.125H54C54 80.113 53.6117 81.0749 52.8977 81.7953L41.5333 70.5326ZM38 79.125V116.812H54V79.125H38ZM38 116.812C38 120.022 39.2628 123.114 41.5333 125.405L52.8977 114.142C53.6117 114.863 54 115.824 54 116.812H38ZM41.5333 125.405C43.8062 127.698 46.9043 129 50.15 129V113C51.1944 113 52.1814 113.419 52.8977 114.142L41.5333 125.405ZM50.15 129H99.95V113H50.15V129ZM99.95 129C103.196 129 106.294 127.698 108.567 125.405L97.2023 114.142C97.9186 113.419 98.9056 113 99.95 113V129ZM108.567 125.405C110.837 123.114 112.1 120.022 112.1 116.812H96.1C96.1 115.824 96.4883 114.863 97.2023 114.142L108.567 125.405ZM112.1 116.812V79.125H96.1V116.812H112.1ZM112.1 79.125C112.1 75.9158 110.837 72.8237 108.567 70.5326L97.2023 81.7953C96.4883 81.0749 96.1 80.113 96.1 79.125H112.1ZM108.567 70.5326C106.294 68.2392 103.196 66.9375 99.95 66.9375V82.9375C98.9056 82.9375 97.9186 82.5182 97.2023 81.7953L108.567 70.5326ZM58.45 91.3125C57.6724 91.3125 56.9183 91.0795 56.2834 90.6514L65.2278 77.385C63.228 76.0367 60.8692 75.3125 58.45 75.3125V91.3125ZM56.2834 90.6514C55.6494 90.2239 55.166 89.6239 54.8834 88.9355L69.6848 82.8595C68.774 80.6408 67.2268 78.7328 65.2278 77.385L56.2834 90.6514ZM54.8834 88.9355C54.6011 88.2478 54.5283 87.4951 54.6713 86.7697L70.3692 89.8642C70.8325 87.5142 70.5953 85.0776 69.6848 82.8595L54.8834 88.9355ZM54.6713 86.7697C54.8144 86.0439 55.1693 85.3674 55.7023 84.8297L67.0667 96.0924C68.7604 94.3833 69.9059 92.2146 70.3692 89.8642L54.6713 86.7697ZM55.7023 84.8297C56.236 84.2911 56.9247 83.9161 57.6853 83.7635L60.8339 99.4506C63.2046 98.9748 65.3723 97.8022 67.0667 96.0924L55.7023 84.8297ZM57.6853 83.7635C58.4464 83.6107 59.2345 83.6898 59.9469 83.9875L53.7768 98.75C56.0058 99.6816 58.4628 99.9265 60.8339 99.4506L57.6853 83.7635ZM59.9469 83.9875C60.6585 84.2849 61.2551 84.7837 61.6695 85.4095L48.3293 94.2434C49.6557 96.2465 51.5486 97.8187 53.7768 98.75L59.9469 83.9875ZM61.6695 85.4095C62.0834 86.0345 62.3 86.7619 62.3 87.5H46.3C46.3 89.8945 47.0034 92.2411 48.3293 94.2434L61.6695 85.4095ZM62.3 87.5C62.3 88.488 61.9117 89.4499 61.1977 90.1703L49.8333 78.9076C47.5628 81.1987 46.3 84.2908 46.3 87.5H62.3ZM61.1977 90.1703C60.4814 90.8932 59.4944 91.3125 58.45 91.3125L58.45 75.3125C55.2043 75.3125 52.1062 76.6142 49.8333 78.9076L61.1977 90.1703ZM95.8 104.625H54.3V120.625H95.8V104.625ZM62.3 112.625V108.438H46.3V112.625H62.3ZM59.9822 114.069L68.2822 105.694L56.9178 94.4311L48.6178 102.806L59.9822 114.069ZM56.9178 105.694L61.0678 109.881L72.4322 98.6186L68.2822 94.4311L56.9178 105.694ZM72.4322 109.881L89.0322 93.1314L77.6678 81.8686L61.0678 98.6186L72.4322 109.881ZM77.6678 93.1314L90.1178 105.694L101.482 94.4311L89.0322 81.8686L77.6678 93.1314ZM87.8 100.062V112.625H103.8V100.062H87.8Z" fill="#483E41" mask="url(#path-3-outside-1_442_2035)"/>
</g>
<defs>
<filter id="filter0_d_442_2035" x="0" y="0" width="186" height="198" filterUnits="userSpaceOnUse" color-interpolation-filters="sRGB">
<feFlood flood-opacity="0" result="BackgroundImageFix"/>
<feColorMatrix in="SourceAlpha" type="matrix" values="0 0 0 0 0 0 0 0 0 0 0 0 0 0 0 0 0 0 127 0" result="hardAlpha"/>
<feOffset dx="12" dy="24"/>
<feComposite in2="hardAlpha" operator="out"/>
<feColorMatrix type="matrix" values="0 0 0 0 0 0 0 0 0 0 0 0 0 0 0 0 0 0 0.2 0"/>
<feBlend mode="normal" in2="BackgroundImageFix" result="effect1_dropShadow_442_2035"/>
<feBlend mode="normal" in="SourceGraphic" in2="effect1_dropShadow_442_2035" result="shape"/>
</filter>
</defs>
</svg>
