<svg width="40" height="40" viewBox="0 0 40 40" fill="none" xmlns="http://www.w3.org/2000/svg">
<rect width="40" height="40" rx="20" fill="#171515"/>
<path d="M16.0274 27.3248C16.0274 27.424 15.9161 27.5034 15.7758 27.5034C15.6161 27.5183 15.5048 27.4389 15.5048 27.3248C15.5048 27.2255 15.6161 27.1461 15.7565 27.1461C15.9016 27.1312 16.0274 27.2106 16.0274 27.3248ZM14.5226 27.1014C14.4887 27.2007 14.5855 27.3148 14.7306 27.3446C14.8565 27.3942 15.0016 27.3446 15.0306 27.2454C15.0597 27.1461 14.9677 27.032 14.8226 26.9873C14.6968 26.9526 14.5565 27.0022 14.5226 27.1014ZM16.6613 27.0171C16.521 27.0518 16.4242 27.1461 16.4387 27.2603C16.4532 27.3595 16.579 27.424 16.7242 27.3893C16.8645 27.3545 16.9613 27.2603 16.9468 27.161C16.9323 27.0667 16.8016 27.0022 16.6613 27.0171ZM19.8452 8C13.1339 8 8 13.2257 8 20.109C8 25.6126 11.3774 30.3222 16.2016 31.9798C16.821 32.0939 17.0387 31.7019 17.0387 31.3793C17.0387 31.0716 17.0242 29.3744 17.0242 28.3322C17.0242 28.3322 13.6371 29.0766 12.9258 26.8533C12.9258 26.8533 12.3742 25.4092 11.5806 25.037C11.5806 25.037 10.4726 24.2578 11.6581 24.2727C11.6581 24.2727 12.8629 24.372 13.5258 25.5531C14.5855 27.4687 16.3613 26.9178 17.0532 26.5903C17.1645 25.7963 17.479 25.2454 17.8274 24.9179C15.1226 24.6102 12.3935 24.2082 12.3935 19.4341C12.3935 18.0693 12.7613 17.3845 13.5355 16.511C13.4097 16.1885 12.9984 14.8585 13.6613 13.1414C14.6726 12.8188 17 14.4813 17 14.4813C17.9677 14.2034 19.0081 14.0595 20.0387 14.0595C21.0694 14.0595 22.1097 14.2034 23.0774 14.4813C23.0774 14.4813 25.4048 12.8138 26.4161 13.1414C27.079 14.8634 26.6677 16.1885 26.5419 16.511C27.3161 17.3894 27.7903 18.0743 27.7903 19.4341C27.7903 24.2231 24.9403 24.6052 22.2355 24.9179C22.6806 25.3099 23.0581 26.0543 23.0581 27.2205C23.0581 28.893 23.0435 30.9624 23.0435 31.3694C23.0435 31.6919 23.2661 32.084 23.8806 31.9699C28.7194 30.3222 32 25.6126 32 20.109C32 13.2257 26.5565 8 19.8452 8ZM12.7032 25.1164C12.6403 25.166 12.6548 25.2801 12.7371 25.3744C12.8145 25.4538 12.9258 25.4886 12.9887 25.424C13.0516 25.3744 13.0371 25.2603 12.9548 25.166C12.8774 25.0866 12.7661 25.0518 12.7032 25.1164ZM12.1806 24.7144C12.1468 24.7789 12.1952 24.8583 12.2919 24.9079C12.3694 24.9576 12.4661 24.9427 12.5 24.8732C12.5339 24.8087 12.4855 24.7293 12.3887 24.6796C12.2919 24.6499 12.2145 24.6648 12.1806 24.7144ZM13.7484 26.4811C13.671 26.5456 13.7 26.6945 13.8113 26.7888C13.9226 26.9029 14.0629 26.9178 14.1258 26.8384C14.1887 26.7739 14.1597 26.625 14.0629 26.5307C13.9565 26.4166 13.8113 26.4017 13.7484 26.4811ZM13.1968 25.7516C13.1194 25.8012 13.1194 25.9302 13.1968 26.0444C13.2742 26.1585 13.4048 26.2082 13.4677 26.1585C13.5452 26.094 13.5452 25.965 13.4677 25.8508C13.4 25.7367 13.2742 25.6871 13.1968 25.7516Z" fill="white"/>
</svg>
