<svg width="40" height="40" viewBox="0 0 40 40" fill="none" xmlns="http://www.w3.org/2000/svg">
<rect width="40" height="40" rx="20" fill="white"/>
<path d="M34 12.5014C33.0434 12.9261 32.0153 13.2121 30.9363 13.341C32.0381 12.6812 32.8841 11.6358 33.2817 10.39C32.2515 11.001 31.1096 11.4452 29.8941 11.6846C28.9224 10.6478 27.5347 10 26.0007 10C22.5567 10 20.0261 13.2132 20.8039 16.5487C16.372 16.3267 12.4417 14.2033 9.81025 10.9761C8.41275 13.3735 9.0855 16.5097 11.4602 18.0979C10.587 18.0697 9.76367 17.8303 9.04542 17.4306C8.98692 19.9017 10.7582 22.2135 13.3235 22.7281C12.5727 22.9317 11.7505 22.9794 10.9142 22.8191C11.5923 24.9381 13.5618 26.4797 15.8975 26.523C13.655 28.2812 10.8297 29.0667 8 28.733C10.3606 30.2464 13.1653 31.1293 16.177 31.1293C26.0808 31.1293 31.6762 22.7649 31.3382 15.2628C32.3804 14.5099 33.285 13.5707 34 12.5014Z" fill="#1E8EEE"/>
</svg>
